<svg width="32" height="32" viewBox="0 0 32 32" fill="none" xmlns="http://www.w3.org/2000/svg">
  <!-- Simplified circular background -->
  <circle cx="16" cy="16" r="15" stroke="#4A5568" stroke-width="1" fill="white"/>

  <!-- Simplified anvil -->
  <path d="M8 24 L24 24 L23 26 L9 26 Z" fill="#4A5568"/>
  <path d="M10 20 L22 20 L24 24 L8 24 Z" fill="#4A5568"/>

  <!-- Simplified hammer -->
  <rect x="4" y="8" width="8" height="2" rx="1" fill="#4A5568" transform="rotate(-30 8 9)"/>
  <rect x="8" y="6" width="4" height="3" rx="1" fill="#4A5568" transform="rotate(-30 10 7.5)"/>

  <!-- Simplified flames -->
  <path d="M14 20 Q12 18 13 16 Q14 14 16 16 Q18 14 19 16 Q20 18 18 20" fill="#FF6B35"/>

  <!-- Simple sparks -->
  <rect x="20" y="12" width="1" height="1" fill="#FF6B35" transform="rotate(45 20.5 12.5)"/>
  <rect x="22" y="10" width="1" height="1" fill="#FF6B35" transform="rotate(45 22.5 10.5)"/>
  <rect x="21" y="14" width="1" height="1" fill="#FF6B35" transform="rotate(45 21.5 14.5)"/>
</svg>
