<svg width="100" height="100" viewBox="0 0 100 100" fill="none" xmlns="http://www.w3.org/2000/svg">
  <!-- Circular background -->
  <circle cx="50" cy="50" r="48" stroke="#4A5568" stroke-width="3" fill="none"/>

  <!-- Anvil base -->
  <path d="M25 75 L75 75 L72 80 L28 80 Z" fill="#4A5568"/>

  <!-- Anvil body -->
  <path d="M30 60 L70 60 L75 75 L25 75 Z" fill="#4A5568"/>
  <rect x="35" y="55" width="30" height="5" fill="#B7791F"/>

  <!-- Hammer handle -->
  <rect x="12" y="25" width="25" height="6" rx="3" fill="#4A5568" transform="rotate(-30 25 28)"/>

  <!-- Hammer head -->
  <rect x="25" y="20" width="12" height="10" rx="2" fill="#4A5568" transform="rotate(-30 31 25)"/>

  <!-- Flames -->
  <path d="M45 50 Q40 45 42 40 Q45 35 50 40 Q55 35 58 40 Q60 45 55 50" fill="#FF6B35"/>
  <path d="M48 52 Q44 48 46 44 Q48 40 52 44 Q56 40 58 44 Q60 48 56 52" fill="#FF8E53"/>
  <path d="M50 54 Q47 51 48 48 Q50 45 53 48 Q56 45 57 48 Q58 51 55 54" fill="#FFAB76"/>

  <!-- Sparks/particles -->
  <rect x="65" y="35" width="3" height="3" fill="#FF6B35" transform="rotate(45 66.5 36.5)"/>
  <rect x="70" y="30" width="2" height="2" fill="#FF6B35" transform="rotate(45 71 31)"/>
  <rect x="72" y="40" width="2" height="2" fill="#FF6B35" transform="rotate(45 73 41)"/>
  <rect x="68" y="45" width="3" height="3" fill="#FF6B35" transform="rotate(45 69.5 46.5)"/>
  <rect x="75" y="35" width="2" height="2" fill="#FF6B35" transform="rotate(45 76 36)"/>

  <!-- More sparks -->
  <rect x="62" y="25" width="2" height="2" fill="#FF8E53"/>
  <rect x="67" y="22" width="1" height="1" fill="#FF8E53"/>
  <rect x="74" y="28" width="1" height="1" fill="#FF8E53"/>
</svg>
